<?xml version="1.0" encoding="UTF-8"?>
<svg version="1.1" xmlns="http://www.w3.org/2000/svg" width="500" height="500">
<path d="M0 0 C165 0 330 0 500 0 C500 165 500 330 500 500 C335 500 170 500 0 500 C0 335 0 170 0 0 Z " fill="#FEFEFE" transform="translate(0,0)"/>
<path d="M0 0 C9.57 0 19.14 0 29 0 C29 10.56 29 21.12 29 32 C36.27836665 31.94890582 43.55461189 31.88590115 50.83227539 31.79248047 C53.30648928 31.76430368 55.78079263 31.74307285 58.25512695 31.72900391 C61.81768487 31.70752978 65.37917083 31.66085325 68.94140625 31.609375 C70.59336754 31.60753204 70.59336754 31.60753204 72.27870178 31.60565186 C78.61123764 31.4856491 83.0421516 31.142481 88 27 C89.04476804 24.1400976 89.04476804 24.1400976 88.90234375 20.921875 C88.92546631 19.87612305 88.94858887 18.83037109 88.97241211 17.75292969 C88.96089111 16.43196289 88.94937012 15.11099609 88.9375 13.75 C88.958125 9.5425 88.97875 5.335 89 1 C98.24 1 107.48 1 117 1 C117 10.24 117 19.48 117 29 C121.23269441 28.9254264 125.46349053 28.84210309 129.6953125 28.73754883 C131.13042859 28.70459645 132.56566505 28.67647537 134.00097656 28.65356445 C147.55591352 28.43142985 160.72138829 26.44755045 171.2578125 17.125 C175.15964974 12.36580839 177.4366874 6.54512521 180 1 C189.57 1 199.14 1 209 1 C205.08107465 12.75677604 196.98217554 19.71389459 186.19921875 25.50390625 C169.78329253 33.28231542 153.61288632 34.29379964 135.75 34.125 C129.5625 34.08375 123.375 34.0425 117 34 C117 56.44 117 78.88 117 102 C126.24 102 135.48 102 145 102 C145 103.65 145 105.3 145 107 C118.6 107 92.2 107 65 107 C65 105.35 65 103.7 65 102 C72.92 102 80.84 102 89 102 C89 80.55 89 59.1 89 37 C52.04 37 15.08 37 -23 37 C-23 35.35 -23 33.7 -23 32 C-15.41 32 -7.82 32 0 32 C0 21.44 0 10.88 0 0 Z " fill="#747474" transform="translate(159,248)"/>
<path d="M0 0 C24.75 0 49.5 0 75 0 C75 1.32 75 2.64 75 4 C67.41 4 59.82 4 52 4 C52 36.34 52 68.68 52 102 C42.43 102 32.86 102 23 102 C23 69.66 23 37.32 23 4 C15.41 4 7.82 4 0 4 C0 2.68 0 1.36 0 0 Z " fill="#767676" transform="translate(136,111)"/>
<path d="M0 0 C11.1283197 -0.07006704 22.25658538 -0.12309525 33.38508224 -0.15543652 C38.55465334 -0.17097276 43.72407154 -0.19198573 48.89355469 -0.22631836 C53.89919752 -0.25934795 58.90469499 -0.27694304 63.91043854 -0.28463173 C65.8030348 -0.2900982 67.69562475 -0.30076767 69.58815765 -0.31719017 C92.04401309 -0.50397962 116.87299646 1.04595656 135 16 C139.94461244 21.10699709 142.72976248 25.18928743 145 32 C135.1 32 125.2 32 115 32 C113.02 28.37 111.04 24.74 109 21 C104.46469624 13.71111895 96.14171474 9.91427831 88.11279297 7.61132812 C81.45742391 6.30426584 74.63612396 6.41350991 67.875 6.3125 C66.33070142 6.27925964 64.78642933 6.24476399 63.2421875 6.20898438 C59.49477491 6.12253655 55.74821895 6.06183069 52 6 C52 14.58 52 23.16 52 32 C42.43 32 32.86 32 23 32 C23 23.42 23 14.84 23 6 C15.41 6 7.82 6 0 6 C0 4.02 0 2.04 0 0 Z " fill="#787878" transform="translate(224,180)"/>
<path d="M0 0 C3.12578143 1.6720747 5.39281175 3.7856235 7 7 C7.22287344 11.93228618 6.67082282 15.15717133 3.5625 19.0625 C0.03839668 21.50553781 -3.4552207 21.70245924 -7.65625 21.5 C-11.24585412 20.73421779 -12.86994058 18.88588695 -15 16 C-16.60086627 12.79826746 -16.49917089 9.47422941 -16 6 C-11.8642611 -0.47932428 -7.32150777 -1.03151411 0 0 Z " fill="#7B7B7B" transform="translate(306,219)"/>
<path d="M0 0 C13.33897702 -0.40421142 13.33897702 -0.40421142 18 3 C20.56092293 5.47261524 20.97138496 6.80684849 21.5 10.375 C20.84053371 15.15613064 19.37565893 16.62434107 16 20 C11.53794887 22.23102556 4.78092876 21.04346299 0 21 C0 14.07 0 7.14 0 0 Z " fill="#797979" transform="translate(349,219)"/>
<path d="M0 0 C13.52506793 -0.40985054 13.52506793 -0.40985054 18 3 C20.66539031 6.99808546 20.84149704 10.29751653 20 15 C17.5625 18 17.5625 18 15 20 C14.67 20.33 14.34 20.66 14 21 C9.33154772 21.14426614 4.67134047 21.04208415 0 21 C0 14.07 0 7.14 0 0 Z " fill="#FDF8F8" transform="translate(194,220)"/>
<path d="M0 0 C12.2157883 -0.4935672 12.2157883 -0.4935672 15.8984375 1.82421875 C18 4 18 4 18.4375 7.0625 C18 10 18 10 16 13 C15.34 13 14.68 13 14 13 C15.32 15.64 16.64 18.28 18 21 C15.6875 20.75 15.6875 20.75 13 20 C12.525625 19.34 12.05125 18.68 11.5625 18 C10.07576173 15.66681292 10.07576173 15.66681292 6.8125 15.25 C5.884375 15.1675 4.95625 15.085 4 15 C4 16.98 4 18.96 4 21 C2.68 21 1.36 21 0 21 C0 14.07 0 7.14 0 0 Z " fill="#787878" transform="translate(394,219)"/>
<path d="M0 0 C12.2157883 -0.4935672 12.2157883 -0.4935672 15.8984375 1.82421875 C18 4 18 4 18.4375 7.0625 C18 10 18 10 16 13 C15.34 13 14.68 13 14 13 C15.32 15.64 16.64 18.28 18 21 C15.6875 20.75 15.6875 20.75 13 20 C12.525625 19.34 12.05125 18.68 11.5625 18 C10.07576173 15.66681292 10.07576173 15.66681292 6.8125 15.25 C5.884375 15.1675 4.95625 15.085 4 15 C4 16.98 4 18.96 4 21 C2.68 21 1.36 21 0 21 C0 14.07 0 7.14 0 0 Z " fill="#787878" transform="translate(269,219)"/>
<path d="M0 0 C12.21934594 -0.49371095 12.21934594 -0.49371095 15.890625 1.828125 C18 4 18 4 18.5625 7 C17.88701736 10.6025741 16.83326787 11.75005199 14 14 C10.78548731 15.60725635 7.56387464 15.05748185 4 15 C4 16.98 4 18.96 4 21 C2.68 21 1.36 21 0 21 C0 14.07 0 7.14 0 0 Z " fill="#787878" transform="translate(247,219)"/>
<path d="M0 0 C4.95 0 9.9 0 15 0 C15 0.99 15 1.98 15 3 C11.37 3 7.74 3 4 3 C4 4.98 4 6.96 4 9 C7.3 9 10.6 9 14 9 C14 9.99 14 10.98 14 12 C10.7 12 7.4 12 4 12 C4 13.98 4 15.96 4 18 C7.96 18 11.92 18 16 18 C16 18.99 16 19.98 16 21 C10.72 21 5.44 21 0 21 C0 14.07 0 7.14 0 0 Z " fill="#767676" transform="translate(374,219)"/>
<path d="M0 0 C2.9375 2.0625 2.9375 2.0625 5 5 C5.06625411 8.8427383 4.81899419 10.99200716 2.375 14 C-1.11581787 15.46981805 -3.39148956 14.98413921 -7 14 C-9.5881216 11.74582958 -9.94242643 10.39479021 -10.4375 7 C-10 4 -10 4 -8.375 1.625 C-5.24988831 -0.51323431 -3.71837535 -0.6829669 0 0 Z " fill="#F9F4F4" transform="translate(304,222)"/>
<path d="M0 0 C0.99 0 1.98 0 3 0 C5.97 6.6 8.94 13.2 12 20 C11.01 20.33 10.02 20.66 9 21 C8.34 19.35 7.68 17.7 7 16 C3.04 15.67 -0.92 15.34 -5 15 C-5.66 16.98 -6.32 18.96 -7 21 C-7.66 21 -8.32 21 -9 21 C-8.38367054 16.04001528 -6.20164371 12.06328034 -3.9375 7.6875 C-3.37192383 6.57665039 -3.37192383 6.57665039 -2.79492188 5.44335938 C-1.86871843 3.62612478 -0.93509371 1.81267596 0 0 Z " fill="#828181" transform="translate(179,220)"/>
<path d="M0 0 C7.10583942 -0.60218978 7.10583942 -0.60218978 11.0625 2.0625 C13 5 13 5 13.125 8.625 C12 12 12 12 9.875 13.9375 C7 15 7 15 0 15 C0 10.05 0 5.1 0 0 Z " fill="#F8F3F3" transform="translate(353,222)"/>
<path d="M0 0 C1.65 0 3.3 0 5 0 C6.98 4.62 8.96 9.24 11 14 C11.78375 12.4325 12.5675 10.865 13.375 9.25 C15.6875 4.625 15.6875 4.625 18 0 C19.32 0.33 20.64 0.66 22 1 C20.80274277 4.15892058 19.56208669 7.29895101 18.3125 10.4375 C17.80299805 11.78424805 17.80299805 11.78424805 17.28320312 13.15820312 C16.93837891 14.01220703 16.59355469 14.86621094 16.23828125 15.74609375 C15.92930908 16.53685303 15.62033691 17.3276123 15.30200195 18.14233398 C14 20 14 20 11.36010742 20.76586914 C10.58127197 20.84313232 9.80243652 20.92039551 9 21 C7.87081967 18.62690978 6.74657935 16.25168006 5.625 13.875 C5.14933594 12.87726563 5.14933594 12.87726563 4.6640625 11.859375 C2.83324746 7.96889305 1.27033107 4.11895224 0 0 Z " fill="#7C7B7B" transform="translate(314,219)"/>
<path d="M0 0 C13.52506793 -0.40985054 13.52506793 -0.40985054 18 3 C20.66539031 6.99808546 20.84149704 10.29751653 20 15 C17.5625 18 17.5625 18 15 20 C14.67 20.33 14.34 20.66 14 21 C9.33154772 21.14426614 4.67134047 21.04208415 0 21 C0 14.07 0 7.14 0 0 Z M3 2 C3 7.61 3 13.22 3 19 C10.52637505 19.46852221 10.52637505 19.46852221 17 16 C18.56935594 12.86128812 18.35201103 10.46144178 18 7 C16.2739971 3.85641749 16.2739971 3.85641749 13 2 C9.55185569 1.58938129 6.49423937 1.76705071 3 2 Z " fill="#888888" transform="translate(194,220)"/>
<path d="M0 0 C4.95 0 9.9 0 15 0 C15 0.66 15 1.32 15 2 C11.04 2 7.08 2 3 2 C3 4.31 3 6.62 3 9 C6.63 9 10.26 9 14 9 C14 9.66 14 10.32 14 11 C10.37 11 6.74 11 3 11 C3 13.64 3 16.28 3 19 C7.29 19 11.58 19 16 19 C16 19.66 16 20.32 16 21 C10.72 21 5.44 21 0 21 C0 14.07 0 7.14 0 0 Z " fill="#939292" transform="translate(152,220)"/>
<path d="M0 0 C0.90105469 0.02707031 1.80210937 0.05414063 2.73046875 0.08203125 C3.76107422 0.13423828 3.76107422 0.13423828 4.8125 0.1875 C5.1425 1.1775 5.4725 2.1675 5.8125 3.1875 C2.5125 3.1875 -0.7875 3.1875 -4.1875 3.1875 C-4.5175 4.8375 -4.8475 6.4875 -5.1875 8.1875 C-4.40503906 8.39246094 -3.62257812 8.59742188 -2.81640625 8.80859375 C-1.80449219 9.07800781 -0.79257813 9.34742188 0.25 9.625 C1.76400391 10.02525391 1.76400391 10.02525391 3.30859375 10.43359375 C5.8125 11.1875 5.8125 11.1875 6.8125 12.1875 C7.0625 15.625 7.0625 15.625 6.8125 19.1875 C3.690498 21.26883467 2.87983011 21.4612822 -0.6875 21.4375 C-1.84765625 21.44523437 -1.84765625 21.44523437 -3.03125 21.453125 C-5.1875 21.1875 -5.1875 21.1875 -8.1875 19.1875 C-8.1875 18.5275 -8.1875 17.8675 -8.1875 17.1875 C-7.1975 17.5175 -6.2075 17.8475 -5.1875 18.1875 C-3.45954648 18.25552967 -1.72914635 18.27245645 0 18.25 C0.90105469 18.24097656 1.80210937 18.23195312 2.73046875 18.22265625 C3.76107422 18.20525391 3.76107422 18.20525391 4.8125 18.1875 C4.47584085 15.70501876 4.47584085 15.70501876 2.8125 13.1875 C0.54390307 12.1668458 -1.69031395 11.4992554 -4.09375 10.86328125 C-6.1875 10.1875 -6.1875 10.1875 -8.1875 8.1875 C-8.54441675 5.40354938 -8.66698435 3.84874965 -6.9921875 1.5390625 C-4.56175893 -0.28112859 -3.00025214 -0.11689294 0 0 Z " fill="#858585" transform="translate(226.1875,219.8125)"/>
<path d="M0 0 C1.32 0 2.64 0 4 0 C4 6.93 4 13.86 4 21 C2.68 21 1.36 21 0 21 C0 14.07 0 7.14 0 0 Z " fill="#767676" transform="translate(339,219)"/>
<path d="M0 0 C6.625 -0.25 6.625 -0.25 10 2 C9.25 6.75 9.25 6.75 7 9 C3.375 9.125 3.375 9.125 0 9 C0 6.03 0 3.06 0 0 Z " fill="#F4EFEF" transform="translate(398,222)"/>
<path d="M0 0 C6.625 -0.25 6.625 -0.25 10 2 C9.25 6.75 9.25 6.75 7 9 C3.375 9.125 3.375 9.125 0 9 C0 6.03 0 3.06 0 0 Z " fill="#F4EFEF" transform="translate(273,222)"/>
<path d="M0 0 C6.625 -0.25 6.625 -0.25 10 2 C9.25 6.75 9.25 6.75 7 9 C3.375 9.125 3.375 9.125 0 9 C0 6.03 0 3.06 0 0 Z " fill="#F4EFEF" transform="translate(251,222)"/>
<path d="M0 0 C0.66 0 1.32 0 2 0 C2 6.27 2 12.54 2 19 C5.96 19 9.92 19 14 19 C14 19.66 14 20.32 14 21 C9.38 21 4.76 21 0 21 C0 14.07 0 7.14 0 0 Z " fill="#767676" transform="translate(135,220)"/>
<path d="M0 0 C3.0625 0.1875 3.0625 0.1875 5.0625 2.1875 C4.50694444 6.74305556 4.50694444 6.74305556 3.0625 8.1875 C0.0625 8.3125 0.0625 8.3125 -2.9375 8.1875 C-3.9375 7.1875 -3.9375 7.1875 -4.0625 4.1875 C-3.89838889 0.24883333 -3.89838889 0.24883333 0 0 Z " fill="#8E8E8E" transform="translate(126.9375,366.8125)"/>
<path d="M0 0 C2.5625 0.1875 2.5625 0.1875 4.5625 2.1875 C4.00694444 6.74305556 4.00694444 6.74305556 2.5625 8.1875 C0.125 8.375 0.125 8.375 -2.4375 8.1875 C-3.0975 7.5275 -3.7575 6.8675 -4.4375 6.1875 C-3.71780303 0.28598485 -3.71780303 0.28598485 0 0 Z " fill="#7F7F7F" transform="translate(393.4375,366.8125)"/>
<path d="M0 0 C2.5625 0.1875 2.5625 0.1875 4.5625 2.1875 C4.00694444 6.74305556 4.00694444 6.74305556 2.5625 8.1875 C0.125 8.375 0.125 8.375 -2.4375 8.1875 C-3.0975 7.5275 -3.7575 6.8675 -4.4375 6.1875 C-3.71780303 0.28598485 -3.71780303 0.28598485 0 0 Z " fill="#7F7F7F" transform="translate(292.4375,366.8125)"/>
<path d="M0 0 C3.96 0 7.92 0 12 0 C12 0.33 12 0.66 12 1 C8.7 1 5.4 1 2 1 C2 3.64 2 6.28 2 9 C6.29 9 10.58 9 15 9 C15 9.66 15 10.32 15 11 C10.05 11 5.1 11 0 11 C0 7.37 0 3.74 0 0 Z " fill="#7C7C7C" transform="translate(153,230)"/>
<path d="M0 0 C0.66 0 1.32 0 2 0 C3.32 3.3 4.64 6.6 6 10 C3.03 10 0.06 10 -3 10 C-2.39009109 6.44219804 -1.4216319 3.3171411 0 0 Z " fill="#F7F2F2" transform="translate(179,223)"/>
<path d="M0 0 C3 1 3 1 3.94921875 2.84765625 C4.31466797 3.94400391 4.31466797 3.94400391 4.6875 5.0625 C4.93886719 5.79597656 5.19023437 6.52945313 5.44921875 7.28515625 C5.63097656 7.85105469 5.81273437 8.41695312 6 9 C5.01 9 4.02 9 3 9 C2.34 7.35 1.68 5.7 1 4 C-2.96 3.67 -6.92 3.34 -11 3 C-11.66 4.98 -12.32 6.96 -13 9 C-13.66 9 -14.32 9 -15 9 C-14.64930333 6.40484463 -14.33376494 4.47429754 -12.8125 2.3125 C-10.19641141 0.41809102 -8.46067399 0.90508925 -5.3125 1.3125 C-3.82169922 1.49232422 -3.82169922 1.49232422 -2.30078125 1.67578125 C-1.54152344 1.78277344 -0.78226563 1.88976562 0 2 C0 1.34 0 0.68 0 0 Z " fill="#7F7E7E" transform="translate(185,232)"/>
<path d="M0 0 C1.9375 0.375 1.9375 0.375 4 1 C4.33 1.66 4.66 2.32 5 3 C5.33 2.01 5.66 1.02 6 0 C6.66 0 7.32 0 8 0 C8 2.64 8 5.28 8 8 C6.68 7.34 5.36 6.68 4 6 C3.67 6.66 3.34 7.32 3 8 C2.01 8 1.02 8 0 8 C0 5.36 0 2.72 0 0 Z " fill="#8E8E8E" transform="translate(403,367)"/>
<path d="M0 0 C1.98 0 3.96 0 6 0 C6.59732819 2.76264289 7 5.16032769 7 8 C4.525 7.01 4.525 7.01 2 6 C2 6.66 2 7.32 2 8 C1.34 8 0.68 8 0 8 C0 5.36 0 2.72 0 0 Z " fill="#969696" transform="translate(150,367)"/>
<path d="M0 0 C2 0 2 0 3.625 1.5 C4.07875 1.995 4.5325 2.49 5 3 C5.66 2.01 6.32 1.02 7 0 C7.66 0 8.32 0 9 0 C9 2.64 9 5.28 9 8 C8.34 8 7.68 8 7 8 C6.67 7.34 6.34 6.68 6 6 C5.01 6 4.02 6 3 6 C2.67 6.66 2.34 7.32 2 8 C1.34 8 0.68 8 0 8 C0 5.36 0 2.72 0 0 Z " fill="#858585" transform="translate(336,367)"/>
<path d="M0 0 C1.98 0 3.96 0 6 0 C6.82638376 2.89234315 7 4.88742431 7 8 C4.525 7.01 4.525 7.01 2 6 C2 6.66 2 7.32 2 8 C1.34 8 0.68 8 0 8 C0 5.36 0 2.72 0 0 Z " fill="#A5A5A5" transform="translate(316,367)"/>
<path d="M0 0 C0.99 0 1.98 0 3 0 C3 1.98 3 3.96 3 6 C3.99 6 4.98 6 6 6 C6 4.02 6 2.04 6 0 C6.66 0 7.32 0 8 0 C8.125 2.875 8.125 2.875 8 6 C7.34 6.66 6.68 7.32 6 8 C1.44444444 7.44444444 1.44444444 7.44444444 0 6 C-0.04080783 4.00041636 -0.04254356 1.99954746 0 0 Z " fill="#7E7E7E" transform="translate(302,367)"/>
<path d="M0 0 C0.99 0 1.98 0 3 0 C3 1.98 3 3.96 3 6 C3.99 6 4.98 6 6 6 C6 4.02 6 2.04 6 0 C6.66 0 7.32 0 8 0 C8.125 2.875 8.125 2.875 8 6 C7.34 6.66 6.68 7.32 6 8 C1.44444444 7.44444444 1.44444444 7.44444444 0 6 C-0.04080783 4.00041636 -0.04254356 1.99954746 0 0 Z " fill="#7E7E7E" transform="translate(181,367)"/>
<path d="M0 0 C1.98 0 3.96 0 6 0 C4.68 0.33 3.36 0.66 2 1 C2 1.66 2 2.32 2 3 C3.32 3 4.64 3 6 3 C6.33 4.65 6.66 6.3 7 8 C4.69 8 2.38 8 0 8 C0 5.36 0 2.72 0 0 Z " fill="#878787" transform="translate(220,367)"/>
<path d="M0 0 C1.2065625 0.0309375 1.2065625 0.0309375 2.4375 0.0625 C1.4475 0.3925 0.4575 0.7225 -0.5625 1.0625 C-0.5625 1.7225 -0.5625 2.3825 -0.5625 3.0625 C0.7575 3.3925 2.0775 3.7225 3.4375 4.0625 C3.1075 5.3825 2.7775 6.7025 2.4375 8.0625 C0.4575 8.0625 -1.5225 8.0625 -3.5625 8.0625 C-3.5625 7.4025 -3.5625 6.7425 -3.5625 6.0625 C-2.9025 5.7325 -2.2425 5.4025 -1.5625 5.0625 C-2.2225 3.7425 -2.8825 2.4225 -3.5625 1.0625 C-2.5625 0.0625 -2.5625 0.0625 0 0 Z " fill="#8D8D8D" transform="translate(361.5625,366.9375)"/>
<path d="M0 0 C1.2065625 0.0309375 1.2065625 0.0309375 2.4375 0.0625 C1.4475 0.3925 0.4575 0.7225 -0.5625 1.0625 C-0.5625 1.7225 -0.5625 2.3825 -0.5625 3.0625 C0.7575 3.3925 2.0775 3.7225 3.4375 4.0625 C3.1075 5.3825 2.7775 6.7025 2.4375 8.0625 C0.4575 8.0625 -1.5225 8.0625 -3.5625 8.0625 C-3.5625 7.4025 -3.5625 6.7425 -3.5625 6.0625 C-2.9025 5.7325 -2.2425 5.4025 -1.5625 5.0625 C-2.2225 3.7425 -2.8825 2.4225 -3.5625 1.0625 C-2.5625 0.0625 -2.5625 0.0625 0 0 Z " fill="#8D8D8D" transform="translate(272.5625,366.9375)"/>
<path d="M0 0 C1.2065625 0.0309375 1.2065625 0.0309375 2.4375 0.0625 C1.4475 0.3925 0.4575 0.7225 -0.5625 1.0625 C-0.5625 1.7225 -0.5625 2.3825 -0.5625 3.0625 C0.7575 3.3925 2.0775 3.7225 3.4375 4.0625 C3.1075 5.3825 2.7775 6.7025 2.4375 8.0625 C0.4575 8.0625 -1.5225 8.0625 -3.5625 8.0625 C-3.5625 7.4025 -3.5625 6.7425 -3.5625 6.0625 C-2.9025 5.7325 -2.2425 5.4025 -1.5625 5.0625 C-2.2225 3.7425 -2.8825 2.4225 -3.5625 1.0625 C-2.5625 0.0625 -2.5625 0.0625 0 0 Z " fill="#8D8D8D" transform="translate(234.5625,366.9375)"/>
<path d="M0 0 C0.66 0 1.32 0 2 0 C2 1.98 2 3.96 2 6 C2.99 6 3.98 6 5 6 C5 4.02 5 2.04 5 0 C5.66 0 6.32 0 7 0 C7.04241723 2.33294775 7.04092937 4.66702567 7 7 C6 8 6 8 3.5 8.125 C1 8 1 8 0 7 C-0.04092937 4.66702567 -0.04241723 2.33294775 0 0 Z " fill="#898989" transform="translate(137,367)"/>
<path d="M0 0 C1.4540625 0.0309375 1.4540625 0.0309375 2.9375 0.0625 C2.9375 0.7225 2.9375 1.3825 2.9375 2.0625 C0.9575 2.0625 -1.0225 2.0625 -3.0625 2.0625 C-2.7325 3.0525 -2.4025 4.0425 -2.0625 5.0625 C-0.4125 5.3925 1.2375 5.7225 2.9375 6.0625 C2.6075 6.7225 2.2775 7.3825 1.9375 8.0625 C-0.4375 8.1875 -0.4375 8.1875 -3.0625 8.0625 C-3.7225 7.4025 -4.3825 6.7425 -5.0625 6.0625 C-4.33395709 0.0884481 -4.33395709 0.0884481 0 0 Z " fill="#8E8E8E" transform="translate(199.0625,366.9375)"/>
<path d="M0 0 C1.98 0 3.96 0 6 0 C4.68 0.33 3.36 0.66 2 1 C2 1.66 2 2.32 2 3 C3.32 3.33 4.64 3.66 6 4 C5.67 5.32 5.34 6.64 5 8 C3.35 8 1.7 8 0 8 C0 5.33333333 0 2.66666667 0 0 Z " fill="#888888" transform="translate(170,367)"/>
<path d="M0 0 C1.98 0 3.96 0 6 0 C4.68 0.33 3.36 0.66 2 1 C2 1.66 2 2.32 2 3 C3.32 3.33 4.64 3.66 6 4 C5.67 5.32 5.34 6.64 5 8 C3.35 8 1.7 8 0 8 C0 7.34 0 6.68 0 6 C0.66 5.67 1.32 5.34 2 5 C1.34 4.67 0.68 4.34 0 4 C0 2.68 0 1.36 0 0 Z " fill="#868686" transform="translate(370,367)"/>
<path d="M0 0 C1.98 0 3.96 0 6 0 C4.68 0.33 3.36 0.66 2 1 C2 1.66 2 2.32 2 3 C3.32 3.33 4.64 3.66 6 4 C5.67 5.32 5.34 6.64 5 8 C3.35 8 1.7 8 0 8 C0 7.34 0 6.68 0 6 C0.66 5.67 1.32 5.34 2 5 C1.34 4.67 0.68 4.34 0 4 C0 2.68 0 1.36 0 0 Z " fill="#868686" transform="translate(243,367)"/>
<path d="M0 0 C0.99 0.33 1.98 0.66 3 1 C2.01 3.31 1.02 5.62 0 8 C2.97 8 5.94 8 9 8 C9 8.33 9 8.66 9 9 C5.04 9 1.08 9 -3 9 C-2.01 6.03 -1.02 3.06 0 0 Z " fill="#979595" transform="translate(176,225)"/>
<path d="M0 0 C1.4540625 0.0309375 1.4540625 0.0309375 2.9375 0.0625 C2.6075 0.7225 2.2775 1.3825 1.9375 2.0625 C0.9475 2.0625 -0.0425 2.0625 -1.0625 2.0625 C-1.3925 3.3825 -1.7225 4.7025 -2.0625 6.0625 C-0.4125 6.0625 1.2375 6.0625 2.9375 6.0625 C2.9375 6.7225 2.9375 7.3825 2.9375 8.0625 C0.5625 8.1875 0.5625 8.1875 -2.0625 8.0625 C-4.0625 6.0625 -4.0625 6.0625 -4.25 3.5 C-3.97031732 -0.13587487 -3.72751987 0.07607183 0 0 Z " fill="#838383" transform="translate(211.0625,366.9375)"/>
<path d="M0 0 C0.99 0.33 1.98 0.66 3 1 C-3 7 -3 7 -6.0625 7.0625 C-7.5165625 7.0315625 -7.5165625 7.0315625 -9 7 C-7.39598746 3.79197492 -4.19662773 3.36998331 -1 2 C-0.67 1.34 -0.34 0.68 0 0 Z " fill="#868585" transform="translate(211,234)"/>
<path d="M0 0 C1.1446875 0.2475 1.1446875 0.2475 2.3125 0.5 C5.03596236 1.09145396 5.03596236 1.09145396 8 1 C7.01 3.31 6.02 5.62 5 8 C4.34 8 3.68 8 3 8 C2.01 5.36 1.02 2.72 0 0 Z " fill="#858585" transform="translate(110,367)"/>
<path d="M0 0 C3.63 0.66 7.26 1.32 11 2 C11 2.66 11 3.32 11 4 C9.741875 4.04125 8.48375 4.0825 7.1875 4.125 C6.47980469 4.14820313 5.77210938 4.17140625 5.04296875 4.1953125 C3 4 3 4 0 2 C0 1.34 0 0.68 0 0 Z " fill="#818181" transform="translate(218,237)"/>
<path d="M0 0 C1.98 0.495 1.98 0.495 4 1 C4 2.32 4 3.64 4 5 C2.35 4.67 0.7 4.34 -1 4 C-0.67 2.68 -0.34 1.36 0 0 Z " fill="#F1F1F1" transform="translate(392,368)"/>
<path d="M0 0 C1.98 0.495 1.98 0.495 4 1 C4 2.32 4 3.64 4 5 C2.35 4.67 0.7 4.34 -1 4 C-0.67 2.68 -0.34 1.36 0 0 Z " fill="#F1F1F1" transform="translate(291,368)"/>
<path d="M0 0 C1.98 0 3.96 0 6 0 C6.82638376 2.89234315 7 4.88742431 7 8 C6.01 7.67 5.02 7.34 4 7 C4 5.35 4 3.7 4 2 C2.68 1.34 1.36 0.68 0 0 Z " fill="#7F7F7F" transform="translate(316,367)"/>
<path d="M0 0 C0.99 0.33 1.98 0.66 3 1 C3 2.32 3 3.64 3 5 C3.66 5 4.32 5 5 5 C5.33 5.99 5.66 6.98 6 8 C1.125 6.125 1.125 6.125 0 5 C-0.04063832 3.33382885 -0.042721 1.66611905 0 0 Z " fill="#959494" transform="translate(218,223)"/>
<path d="M0 0 C0.99 0.33 1.98 0.66 3 1 C3 2.32 3 3.64 3 5 C1.68 5 0.36 5 -1 5 C-0.67 3.35 -0.34 1.7 0 0 Z " fill="#F9F9F9" transform="translate(126,368)"/>
<path d="M0 0 C0.99 0 1.98 0 3 0 C3 1.98 3 3.96 3 6 C2.01 6 1.02 6 0 6 C0 4.02 0 2.04 0 0 Z " fill="#A2A2A2" transform="translate(302,367)"/>
<path d="M0 0 C0.99 0 1.98 0 3 0 C3 1.98 3 3.96 3 6 C2.01 6 1.02 6 0 6 C0 4.02 0 2.04 0 0 Z " fill="#A2A2A2" transform="translate(181,367)"/>
</svg>
